<svg width="36" height="17" viewBox="0 0 36 17" fill="none" xmlns="http://www.w3.org/2000/svg">
<g clip-path="url(#clip0_0_7)">
<mask id="mask0_0_7" style="mask-type:alpha" maskUnits="userSpaceOnUse" x="2" y="0" width="33" height="26">
<path fill-rule="evenodd" clip-rule="evenodd" d="M29.5684 4.42357C28.3514 1.84216 25.7255 0.0556774 22.6824 0.0556774C21.4868 0.0556774 20.3556 0.33145 19.3489 0.822858C18.7814 0.344168 18.0483 0.0556774 17.2477 0.0556774C15.823 0.0556774 14.6116 0.969384 14.1677 2.24278C13.0581 2.32408 12.0513 2.77557 11.2703 3.47427C10.9256 3.37164 10.5605 3.31652 10.1826 3.31652C8.64517 3.31652 7.32076 4.22847 6.7208 5.54094C4.07144 5.90382 2.03039 8.17613 2.03039 10.9252C2.03039 13.9267 4.46362 16.3599 7.46515 16.3599C7.85413 16.3599 8.23356 16.3191 8.59939 16.2414C9.08565 21.1896 13.2587 25.0556 18.3346 25.0556C23.008 25.0556 26.9159 21.7786 27.886 17.3971C28.1396 17.43 28.3982 17.4469 28.6608 17.4469C31.9625 17.4469 34.639 14.7703 34.639 11.4686C34.639 9.55281 33.7378 7.84747 32.3363 6.75339C31.9747 5.50831 30.8909 4.57048 29.5684 4.42357Z" fill="white"/>
</mask>
<g mask="url(#mask0_0_7)">
<circle cx="17.5813" cy="-20.9301" r="35.1626" fill="white"/>
</g>
</g>
<defs>
<clipPath id="clip0_0_7">
<rect width="35.8333" height="16.6667" fill="white" transform="scale(1.00465)"/>
</clipPath>
</defs>
</svg>
