<svg width="36" height="36" viewBox="0 0 36 36" fill="none" xmlns="http://www.w3.org/2000/svg">
<path d="M21.9892 18.0826C21.1984 18.8372 20.3645 19.8588 19.6066 21.2289C18.8577 18.5329 17.9138 16.5564 16.9596 15.1094C21.3379 0.52269 0 0 0 0C0 0 0.622881 18.2308 11.7667 17.8122C11.744 16.5915 11.5545 15.3571 11.289 14.1997C11.1154 13.4451 10.9089 12.7256 10.6956 12.0615C9.98311 9.85871 9.1787 8.29516 9.1787 8.29516C9.99105 9.38353 10.7104 10.4221 11.3457 11.3985C13.5321 14.753 14.7256 17.3619 15.2804 18.7399C16.6499 21.6735 17.8797 26.4988 17.8797 34.3844C17.8797 35.2771 18.607 36 19.4988 36C20.3928 36 21.1189 35.2771 21.1189 34.3844C21.1189 31.8287 20.9953 29.5546 20.7718 27.5261C21.288 25.0507 22.0674 23.2937 22.8741 22.0492C23.404 21.0411 24.3808 19.3146 25.6969 17.552C26.869 15.9839 28.3144 14.3864 29.9493 13.246C29.9493 13.246 26.5967 16.9467 26.38 20.5693C35.6403 21.0513 36 6.52344 36 6.52344C36 6.52344 19.0529 7.10044 21.9892 18.0826Z" fill="white"/>
</svg>
